{"asset":{"version":"2.0","generator":"babylon.js glTF exporter for Autodesk Maya 2019.3.1 v20210624.1"},"scene":0,"scenes":[{"nodes":[0]}],"nodes":[{"mesh":0,"translation":[-0.03470579,0.0267911926,0.0],"scale":[1.04271114,4.859972,0.668732464],"name":"pCube1"}],"meshes":[{"primitives":[{"attributes":{"POSITION":1,"TANGENT":2,"NORMAL":3,"TEXCOORD_0":4},"indices":0,"material":0}],"name":"pCube1"}],"accessors":[{"bufferView":0,"componentType":5123,"count":1944,"type":"SCALAR","name":"accessorIndices"},{"bufferView":1,"componentType":5126,"count":458,"max":[0.07110448,0.00764633575,0.005],"min":[-0.00479244348,-0.005,-0.005],"type":"VEC3","name":"accessorPositions"},{"bufferView":2,"componentType":5126,"count":458,"type":"VEC4","name":"accessorTangents"},{"bufferView":1,"byteOffset":5496,"componentType":5126,"count":458,"type":"VEC3","name":"accessorNormals"},{"bufferView":3,"componentType":5126,"count":458,"type":"VEC2","name":"accessorUVs"}],"bufferViews":[{"buffer":0,"byteLength":3888,"name":"bufferViewScalar"},{"buffer":0,"byteOffset":3888,"byteLength":10992,"byteStride":12,"name":"bufferViewFloatVec3"},{"buffer":0,"byteOffset":14880,"byteLength":7328,"byteStride":16,"name":"bufferViewFloatVec4"},{"buffer":0,"byteOffset":22208,"byteLength":3664,"byteStride":8,"name":"bufferViewFloatVec2"}],"buffers":[{"uri":"scene.bin","byteLength":25872}],"materials":[{"pbrMetallicRoughness":{"baseColorTexture":{"index":0},"metallicFactor":0.0,"roughnessFactor":0.450053632},"alphaMode":"BLEND","name":"lambert2"}],"textures":[{"sampler":0,"source":0,"name":"finishLineTexture_alpha_finishLineTexture.png"}],"images":[{"uri":"finishLineTexture_alpha_finishLineTexture.png"}],"samplers":[{"magFilter":9729,"minFilter":9987}]}